<svg version="1.1" xmlns="http://www.w3.org/2000/svg" xmlns:xlink="http://www.w3.org/1999/xlink" width="203.02612" height="269.06396" viewBox="0,0,203.02612,269.06396"><g transform="translate(-138.48694,-45.46802)"><g data-paper-data="{&quot;isPaintingLayer&quot;:true}" fill-rule="nonzero" stroke="none" stroke-width="1" stroke-linecap="butt" stroke-linejoin="miter" stroke-miterlimit="10" stroke-dasharray="" stroke-dashoffset="0" style="mix-blend-mode: normal"><path d="M341.51306,46.3889c-4.62619,5.01179 -10.73623,7.22152 -14.19886,13.62313c-1.42796,2.64001 -1.92002,5.56164 -2.83974,8.38346c-2.67647,8.21155 -4.82002,17.76392 -9.40472,25.15038c-2.70754,4.36202 -6.93538,7.21869 -10.75829,10.47933c2.92221,-0.92427 5.86046,-1.04741 8.90743,-1.04793c-1.28864,7.48381 -7.59301,16.52118 -14.14709,20.25759c-4.84936,2.76444 -10.32057,3.2926 -14.67106,6.98866l13.62312,-0.52397c-2.97707,3.65729 -7.25913,6.03609 -10.06592,9.95536c-2.65022,3.69973 -3.20825,8.29805 -5.63683,12.0507c-2.83152,4.37512 -9.66351,7.49115 -14.6873,8.38399c4.12833,1.22031 11.5414,-0.5947 14.14709,3.66776c-7.3743,1.08933 -13.90659,6.0691 -18.10827,12.05123c-4.591,6.53648 -7.75994,14.16752 -15.42556,17.81485h8.38346c-2.41758,4.4862 -9.0688,7.52729 -13.09915,10.54586c-11.95114,8.94934 -27.40553,21.95943 -43.4892,15.12848c1.79563,-6.5653 5.69866,-12.78949 8.71356,-18.86279c3.69344,-7.43875 7.13066,-14.78528 11.27576,-22.00658c14.27389,-24.86744 29.34631,-49.45875 48.12631,-71.25941c7.96952,-9.25168 16.42005,-17.70346 25.15038,-26.20597c1.70781,-1.66328 3.39242,-3.29884 5.23888,-4.81033c0.9313,-0.76237 2.44043,-1.63147 2.79809,-2.86525c0.28551,-0.9848 -0.43955,-2.382 -0.70143,-3.32006c-14.12613,8.86069 -25.97406,21.9545 -37.24876,34.05781c-21.19129,22.74957 -38.95271,47.31992 -55.07567,73.87925c-7.05049,11.61424 -14.05539,23.31336 -19.80435,35.62971c-4.21007,-2.23 -6.68058,-7.16786 -8.2027,-11.52725c-3.80242,-10.8875 -2.19804,-21.18658 2.43906,-31.43798c0,0 3.74741,3.14537 5.76363,4.19173c-4.54907,-15.35588 4.95462,-29.21794 14.18848,-40.3454c2.33322,-2.8116 4.28343,-7.46547 7.29414,-9.43139c-0.35682,4.51816 -0.35682,8.581 0,13.09916c2.19227,-3.79771 2.70996,-8.51078 4.41389,-12.57519c3.64576,-8.69575 8.7319,-16.44573 15.49683,-23.04665c2.86295,-2.79431 6.18647,-5.89357 9.95536,-7.34339c-0.66753,3.59546 -0.4548,6.87968 0,10.47933c1.33716,-3.10765 2.11735,-6.38191 3.65205,-9.43139c3.04372,-6.04841 7.40836,-11.3676 12.04651,-16.24295c2.18389,-2.29518 3.90617,-4.92219 6.832,-6.2876c-0.55383,3.76663 -1.00811,6.64903 -0.52397,10.47933c3.23235,-5.5378 6.22839,-10.91616 10.5684,-15.71899c12.23409,-13.53971 28.19651,-17.94603 45.49599,-20.82928c7.27537,-1.21257 16.32779,-3.32048 23.57849,-1.17731z" data-paper-data="{&quot;index&quot;:null}" fill="#33a1fd"/><path d="M323.17424,46.91286l0.52396,-0.52397z" data-paper-data="{&quot;index&quot;:null}" fill="#00ffff"/><path d="M320.5544,46.91286l-0.52396,0.52397l0.52396,-0.52397M316.88665,47.9608l0.52397,-0.52396z" data-paper-data="{&quot;index&quot;:null}" fill="#7fff7f"/><path d="M314.26681,47.9608l-0.52397,0.52397z" data-paper-data="{&quot;index&quot;:null}" fill="#00ffff"/><path d="M337.8453,49.00873l-0.52397,0.52396z" data-paper-data="{&quot;index&quot;:null}" fill="#7fff7f"/><path d="M299.07179,51.62856l0.52396,-0.52396z" data-paper-data="{&quot;index&quot;:null}" fill="#00ffff"/><path d="M334.17753,51.62856l-0.52396,0.52396z" data-paper-data="{&quot;index&quot;:null}" fill="#7fff7f"/><path d="M298.02386,51.62856l-0.52397,0.52396l0.52397,-0.52396M292.26023,54.24839l0.52397,-0.52397z" data-paper-data="{&quot;index&quot;:null}" fill="#00ffff"/><path d="M289.6404,55.29633l-0.52397,0.52396l0.52397,-0.52396M285.97263,57.39219l-0.52396,0.52397l0.52396,-0.52397M327.88993,58.96409l-0.52396,0.52397z" data-paper-data="{&quot;index&quot;:null}" fill="#7fff7f"/><path d="M327.36597,60.01202l-0.52397,0.52396z" data-paper-data="{&quot;index&quot;:null}" fill="#00ffff"/><path d="M326.842,61.05995l-0.52397,0.52397l0.52397,-0.52397M277.58917,63.67979l0.52397,-0.52397z" data-paper-data="{&quot;index&quot;:null}" fill="#7fff7f"/><path d="M324.22217,69.44342l-0.52397,0.52397z" data-paper-data="{&quot;index&quot;:null}" fill="#00ffff"/><path d="M300.64369,69.96738c0.42116,1.06391 1.20937,2.39992 0.82923,3.57921c-0.81058,2.51457 -5.24867,5.06157 -7.11683,6.89849c-8.20898,8.07191 -16.38705,15.91427 -23.95469,24.62804c-22.0464,25.38407 -39.76528,54.48835 -55.71691,84.00128c-4.2195,7.80605 -7.94185,15.97778 -11.89256,23.93578c-1.18731,2.39138 -2.10424,7.80666 -4.44114,9.22609c-1.29943,0.78961 -3.14537,0.53812 -4.59623,0.53864h-10.47933c1.86532,-4.48096 4.60934,-8.65602 6.8692,-12.90853c5.74214,-10.80313 11.45128,-21.50724 17.85625,-31.96194c16.15493,-26.36912 33.46782,-51.46921 54.89699,-73.87925c7.99153,-8.35778 15.84474,-16.7108 24.64685,-24.24434c4.06498,-3.47924 8.14726,-7.64902 13.09916,-9.81347z" data-paper-data="{&quot;index&quot;:null}" fill="#2176ff"/><path d="M270.77761,70.49135l0.52397,-0.52396z" data-paper-data="{&quot;index&quot;:null}" fill="#7fff7f"/><path d="M323.17424,71.53928l0.52396,-0.52397z" data-paper-data="{&quot;index&quot;:null}" fill="#00ffff"/><path d="M323.17424,72.58721l-0.52397,0.52397z" data-paper-data="{&quot;index&quot;:null}" fill="#7fff7f"/><path d="M266.58588,76.25498l-0.52396,0.52397l0.52396,-0.52397M257.67846,77.82688l-0.52397,0.52397l0.52397,-0.52397M257.15449,78.35084l-0.52397,0.52396l0.52397,-0.52396M321.07838,78.8748l-0.52397,0.52397l0.52397,-0.52397M318.45854,86.21034l-0.52397,0.52397z" data-paper-data="{&quot;index&quot;:null}" fill="#00ffff"/><path d="M246.1512,91.97397l-0.52397,0.52396z" data-paper-data="{&quot;index&quot;:null}" fill="#7fff7f"/><path d="M314.79078,94.06983l-0.52397,0.52397l0.52397,-0.52397M244.5793,94.5938l-0.52397,0.52397l0.52397,-0.52397M312.17095,97.21363l-0.52397,0.52397l0.52397,-0.52397M236.19584,97.21363l-0.52396,0.52397z" data-paper-data="{&quot;index&quot;:null}" fill="#00ffff"/><path d="M311.12302,98.26156l0.52396,-0.52397z" data-paper-data="{&quot;index&quot;:null}" fill="#7fff7f"/><path d="M243.0074,97.73759l-0.52397,0.52397l0.52397,-0.52397M311.12302,98.26156l-0.52397,0.52397z" data-paper-data="{&quot;index&quot;:null}" fill="#00ffff"/><path d="M233.57601,99.30949l-0.52397,0.52397l0.52397,-0.52397M305.35938,102.97726l0.52397,-0.52397z" data-paper-data="{&quot;index&quot;:null}" fill="#7fff7f"/><path d="M307.97922,102.97726l-0.52397,0.52397l0.52397,-0.52397M312.69491,105.07312l0.52397,-0.52397z" data-paper-data="{&quot;index&quot;:null}" fill="#00ffff"/><path d="M312.69491,105.59709l-0.52397,0.52397l0.52397,-0.52397M311.12302,108.74089l-0.52397,0.52396l0.52397,-0.52396M222.04875,111.88468l-0.52397,0.52397z" data-paper-data="{&quot;index&quot;:null}" fill="#7fff7f"/><path d="M219.95288,115.02848l-0.52397,0.52397z" data-paper-data="{&quot;index&quot;:null}" fill="#00ffff"/><path d="M305.35938,117.64831l-0.52396,0.52397l0.52396,-0.52397M215.76115,122.88798l-0.52396,0.52397l0.52396,-0.52397M292.26023,129.69954l-0.52397,0.52397l0.52397,-0.52397M212.61735,131.27144l-0.52396,0.52397l0.52396,-0.52397M198.99423,139.13093l-0.52396,0.52397l0.52396,-0.52397M191.6587,150.13422l-0.52397,0.52397z" data-paper-data="{&quot;index&quot;:null}" fill="#7fff7f"/><path d="M277.06521,156.42182l0.52397,-0.52397z" data-paper-data="{&quot;index&quot;:null}" fill="#00ffff"/><path d="M276.54124,156.42182l-0.52397,0.52397z" data-paper-data="{&quot;index&quot;:null}" fill="#7fff7f"/><path d="M275.49331,160.61354l-0.52397,0.52397l0.52397,-0.52397M277.06521,164.80528l-0.52396,0.52397l0.52396,-0.52397M187.99094,164.80528l-0.52397,0.52397l0.52397,-0.52397M269.72968,168.99701l-0.52397,0.52397l0.52397,-0.52397M187.46697,170.04494l0.52397,-0.52397z" data-paper-data="{&quot;index&quot;:null}" fill="#00ffff"/><path d="M182.22731,172.14081l-0.52397,0.52397z" data-paper-data="{&quot;index&quot;:null}" fill="#7fff7f"/><path d="M180.65541,174.76064l0.52397,-0.52397z" data-paper-data="{&quot;index&quot;:null}" fill="#00ffff"/><path d="M260.82225,180.52427l-0.52396,0.52396l0.52396,-0.52396M179.08351,181.04823l-0.52396,0.52397l0.52396,-0.52397M178.03558,185.23996l0.52397,-0.52397z" data-paper-data="{&quot;index&quot;:null}" fill="#7fff7f"/><path d="M257.15449,193.62343l-0.52397,0.52397l0.52397,-0.52397M249.81896,199.38705l-0.52397,0.52397l0.52397,-0.52397M180.13145,200.43499l-0.52397,0.52396l0.52397,-0.52396M246.1512,202.00689l-0.52397,0.52396l0.52397,-0.52396M185.37111,210.39035l-0.52397,0.52397l0.52397,-0.52397M187.99094,213.01018l-0.52397,0.52397z" data-paper-data="{&quot;index&quot;:null}" fill="#00ffff"/><path d="M216.80909,219.82174l-0.52397,0.52397z" data-paper-data="{&quot;index&quot;:null}" fill="#7fff7f"/><path d="M204.75786,220.34571l-0.52397,0.52397z" data-paper-data="{&quot;index&quot;:null}" fill="#00ffff"/><path d="M207.90166,245.49609c-7.54773,-1.10976 -14.83192,-2.05237 -22.53055,-1.52474c-4.04292,0.27666 -8.01563,1.68412 -12.05122,1.85807c0,-2.86505 0.52763,-6.83418 -1.77834,-9.01336c-1.5216,-1.43829 -3.76208,-1.23603 -5.54933,-2.15979c-3.61956,-1.87161 -4.59728,-6.25459 -2.25934,-9.57182c2.69476,-3.8239 7.59175,-3.16685 11.68287,-3.16685c6.13512,0 12.19532,0.53393 18.33882,0.52397c4.71675,-0.00734 9.40676,-0.52397 14.14709,-0.52397c4.27713,0 9.10758,-0.04664 10.92365,4.71622c1.19517,3.13437 -0.5837,6.92736 -3.60908,8.26348c-2.08067,0.91852 -4.42804,0.51034 -6.10002,2.33479c-1.88681,2.05919 -1.21455,5.68766 -1.21455,8.26399z" data-paper-data="{&quot;index&quot;:null}" fill="#f79824"/><path d="M217.33305,233.44486l0.52397,-0.52397z" data-paper-data="{&quot;index&quot;:null}" fill="#007f7f"/><path d="M200.56613,244.14635c4.76076,0.63295 9.66928,1.34502 14.14709,3.15899c13.10754,5.30988 23.20174,16.55367 27.02199,30.15269c1.26642,4.50768 1.27219,8.98602 1.27219,13.62312c0,7.0594 1.54151,15.7169 -4.72356,20.68148c-3.23182,2.5601 -6.56791,2.37304 -10.47146,2.37304h-13.62313h-43.4892c-7.1055,0 -14.98439,0.962 -22.00658,-0.1116c-5.58444,-0.85406 -9.5147,-6.6004 -9.9082,-11.93962c-0.79905,-10.8482 -0.21902,-22.55413 4.55536,-32.48591c10.31951,-21.46794 35.04549,-28.40002 57.22551,-25.45219z" data-paper-data="{&quot;index&quot;:null}" fill="#fdca40"/><path d="M208.42562,244.97212l-0.52397,0.52397l0.52397,-0.52397M157.60089,252.83162l-0.52397,0.52397l0.52397,-0.52397M225.71651,253.35558l-0.52397,0.52397l0.52397,-0.52397M231.48014,258.59524l-0.52397,0.52397l0.52397,-0.52397M146.5976,264.35887l-0.52397,0.52396l0.52397,-0.52396M238.81567,269.07457l-0.52397,0.52397l0.52397,-0.52397M239.33964,270.1225l-0.52397,0.52396l0.52397,-0.52396M140.83397,276.93406l-0.52397,0.52397z" data-paper-data="{&quot;index&quot;:null}" fill="#0000ff"/><path d="M243.0074,304.70428l-0.52397,0.52397l0.52397,-0.52397M241.4355,307.84808l0.52397,-0.52397z" data-paper-data="{&quot;index&quot;:null}" fill="#0000ff"/></g></g></svg>